<svg width="102" height="24" viewBox="0 0 102 24" fill="none" xmlns="http://www.w3.org/2000/svg">
<path d="M78.5651 8.20032C78.7596 8.48448 78.8244 8.93259 78.7596 9.54463C78.7163 10.1348 78.6083 10.7797 78.4354 11.4791C78.2626 12.1568 78.0573 12.8344 77.8196 13.512C77.5819 14.1678 77.3874 14.7142 77.2361 15.1514C76.8688 16.1569 76.5447 17.0968 76.2637 17.9712C75.9828 18.8455 75.6479 19.8073 75.2589 20.8565C75.1293 21.1626 74.9996 21.4686 74.87 21.7746C74.7619 22.0806 74.6215 22.3539 74.4486 22.5943C74.2973 22.8348 74.1029 23.0315 73.8652 23.1845C73.6491 23.3375 73.379 23.414 73.0548 23.414C72.6875 23.414 72.3634 23.2829 72.0825 23.0206C71.8232 22.7583 71.5963 22.4304 71.4018 22.0369C71.2289 21.6435 71.0777 21.2281 70.948 20.791C70.8183 20.3538 70.7103 19.9713 70.6239 19.6434C70.343 18.6816 70.0945 17.8073 69.8784 17.0203C69.6623 16.2116 69.4678 15.4902 69.2949 14.8563C69.1005 15.4902 68.906 16.1788 68.7115 16.922C68.517 17.6652 68.2685 18.5067 67.966 19.4467C67.8796 19.7745 67.7715 20.1789 67.6419 20.6598C67.5122 21.1189 67.3501 21.556 67.1557 21.9713C66.9828 22.3867 66.7559 22.7364 66.475 23.0206C66.2157 23.3266 65.9024 23.4577 65.535 23.414C65.0164 23.3922 64.5626 23.1845 64.1737 22.791C63.8063 22.3757 63.4822 21.8839 63.2013 21.3156C62.942 20.7473 62.7151 20.1571 62.5206 19.545C62.3261 18.933 62.1641 18.3974 62.0344 17.9384C61.8615 17.3482 61.6562 16.6925 61.4186 15.9711C61.1809 15.2498 60.9432 14.5175 60.7055 13.7743C60.4894 13.0092 60.2841 12.2551 60.0896 11.5119C59.8951 10.7469 59.7655 10.0474 59.7007 9.41348C59.6574 8.99816 59.7331 8.61564 59.9276 8.2659C60.1436 7.91616 60.4137 7.67571 60.7379 7.54456C61.0836 7.39154 61.451 7.35876 61.8399 7.44619C62.2505 7.53363 62.6178 7.79593 62.942 8.23311C63.1148 8.45169 63.2661 8.72493 63.3958 9.05281C63.547 9.38069 63.6767 9.74136 63.7847 10.1348C63.8928 10.5064 64.0008 10.8889 64.1088 11.2824C64.2169 11.6759 64.3249 12.0584 64.433 12.43C64.6707 13.2606 64.8651 13.9164 65.0164 14.3973C65.1893 14.8563 65.3621 15.3372 65.535 15.84C65.6863 15.3372 65.8375 14.8563 65.9888 14.3973C66.1617 13.9164 66.367 13.2606 66.6046 12.43C66.6911 12.1677 66.7883 11.8726 66.8964 11.5447C67.026 11.195 67.1557 10.8671 67.2853 10.5611C67.4366 10.255 67.5986 9.97088 67.7715 9.70857C67.966 9.42441 68.1713 9.21675 68.3874 9.0856C68.8628 8.75772 69.2949 8.68121 69.6839 8.85608C70.0728 9.00909 70.4078 9.28233 70.6887 9.67579C70.9696 10.0692 71.2073 10.5283 71.4018 11.0529C71.6179 11.5556 71.7907 12.0147 71.9204 12.43C72.05 12.8672 72.1689 13.2497 72.2769 13.5776C72.385 13.8836 72.4822 14.1678 72.5687 14.4301C72.6551 14.6924 72.7307 14.9438 72.7955 15.1842C72.882 15.4246 72.9684 15.676 73.0548 15.9383C73.1413 15.676 73.2169 15.4246 73.2817 15.1842C73.3682 14.9438 73.4546 14.6924 73.541 14.4301C73.6275 14.1678 73.7247 13.8836 73.8328 13.5776C73.9408 13.2497 74.0597 12.8672 74.1893 12.43C74.2757 12.1458 74.3622 11.8179 74.4486 11.4463C74.5567 11.0747 74.6647 10.7031 74.7727 10.3315C74.8808 9.93809 74.9888 9.56649 75.0969 9.21675C75.2265 8.86701 75.367 8.57192 75.5182 8.33147C75.6695 8.09103 75.8748 7.8943 76.1341 7.74129C76.3934 7.56641 76.6635 7.46805 76.9444 7.44619C77.2253 7.40247 77.5062 7.43526 77.7872 7.54456C78.0897 7.65385 78.349 7.87244 78.5651 8.20032Z" fill="#FDE60C"/>
<path d="M85.4982 10.5283C85.4982 11.1403 85.4982 11.8289 85.4982 12.5939C85.5198 13.359 85.5306 14.1568 85.5306 14.9875C85.5306 15.7962 85.5306 16.605 85.5306 17.4138C85.5306 18.2007 85.5198 18.933 85.4982 19.6106C85.4766 19.9385 85.4442 20.2992 85.4009 20.6926C85.3577 21.0642 85.2713 21.4139 85.1416 21.7418C85.012 22.0697 84.8067 22.3429 84.5258 22.5615C84.2665 22.7583 83.9099 22.8457 83.4562 22.8238C82.7863 22.7801 82.3001 22.485 81.9976 21.9386C81.7167 21.3921 81.5546 20.627 81.5114 19.6434C81.5114 19.1406 81.5006 18.5614 81.479 17.9056C81.479 17.2499 81.4682 16.5832 81.4465 15.9055C81.4465 15.2279 81.4465 14.5722 81.4465 13.9382C81.4465 13.2825 81.4465 12.6923 81.4465 12.1677C81.4465 11.8617 81.4357 11.4901 81.4141 11.0529C81.4141 10.6157 81.4249 10.1676 81.4465 9.70857C81.4682 9.24954 81.5222 8.81236 81.6086 8.39705C81.695 7.95987 81.8355 7.5992 82.03 7.31504C82.1812 7.14017 82.3973 7.00902 82.6782 6.92158C82.9592 6.81229 83.2509 6.75764 83.5534 6.75764C83.8775 6.75764 84.18 6.81229 84.461 6.92158C84.7635 7.03087 84.9796 7.18389 85.1092 7.38062C85.1957 7.51177 85.2605 7.69757 85.3037 7.93801C85.3469 8.17846 85.3793 8.4517 85.4009 8.75772C85.4442 9.04188 85.4658 9.3479 85.4658 9.67579C85.4874 9.98181 85.4982 10.266 85.4982 10.5283ZM84.2665 3.90507C83.5966 4.07994 83.0348 4.01436 82.581 3.70834C82.1488 3.38046 81.8787 2.89957 81.7707 2.26566C81.6842 1.80663 81.7167 1.40224 81.8679 1.0525C82.0192 0.70276 82.2461 0.440455 82.5486 0.265585C82.8511 0.0688555 83.1968 -0.0185798 83.5858 0.00327873C83.9748 0.0251372 84.3637 0.178149 84.7527 0.462313C85.12 0.724619 85.3793 1.03064 85.5306 1.38038C85.7035 1.73012 85.7575 2.06893 85.6927 2.39681C85.6494 2.7247 85.509 3.03072 85.2713 3.31488C85.0336 3.57719 84.6987 3.77392 84.2665 3.90507Z" fill="#FDE60C"/>
<path d="M88.7268 11.2496C88.7268 10.7469 88.716 10.2113 88.6944 9.643C88.6944 9.07467 88.7917 8.56099 88.9861 8.10196C89.159 7.68664 89.4399 7.39154 89.8289 7.21667C90.2394 7.01995 90.6392 6.97623 91.0282 7.08552C91.4171 7.1511 91.7196 7.27132 91.9357 7.44619C92.1518 7.62106 92.3031 7.82872 92.3895 8.06917C92.4975 8.28775 92.5624 8.55006 92.584 8.85608C92.6056 9.14025 92.6272 9.42441 92.6488 9.70857C92.8649 9.31512 93.135 8.99816 93.4591 8.75772C93.7833 8.51727 94.1182 8.32054 94.4639 8.16753C94.8097 8.01452 95.1338 7.90523 95.4363 7.83965C95.7605 7.77407 96.009 7.74129 96.1818 7.74129C97.003 7.74129 97.8133 7.92708 98.6128 8.29868C99.4339 8.64842 100.115 9.15118 100.655 9.80694C100.957 10.2004 101.184 10.6157 101.336 11.0529C101.508 11.4682 101.627 11.9054 101.692 12.3644C101.778 12.8234 101.833 13.2934 101.854 13.7743C101.876 14.2333 101.897 14.7033 101.919 15.1842C102.027 16.5832 102.027 17.9712 101.919 19.3483C101.897 19.6325 101.887 19.9603 101.887 20.3319C101.887 20.7035 101.854 21.0751 101.789 21.4467C101.746 21.7965 101.649 22.1134 101.498 22.3976C101.368 22.6599 101.141 22.8238 100.817 22.8894C100.363 22.9987 99.985 23.0206 99.6824 22.955C99.4015 22.9113 99.1746 22.8129 99.0018 22.6599C98.8289 22.5069 98.6992 22.3102 98.6128 22.0697C98.5264 21.8293 98.4508 21.556 98.3859 21.25C98.3427 21.0096 98.2995 20.7363 98.2563 20.4303C98.2347 20.1024 98.2131 19.7745 98.1914 19.4467C98.1914 19.1188 98.1806 18.8018 98.159 18.4958C98.159 18.1679 98.159 17.8728 98.159 17.6105C98.159 17.1952 98.1482 16.7362 98.1266 16.2334C98.105 15.7307 98.105 15.2607 98.1266 14.8235C98.1266 13.7962 97.8565 13.0202 97.3163 12.4956C96.7977 11.9491 96.0846 11.7196 95.177 11.807C94.4855 11.8945 93.8805 12.1786 93.3619 12.6595C92.8433 13.1185 92.5948 13.7197 92.6164 14.4629C92.6164 14.747 92.6164 15.0093 92.6164 15.2498C92.6164 15.4902 92.6056 15.7307 92.584 15.9711C92.584 16.2116 92.584 16.4739 92.584 16.758C92.584 17.0422 92.584 17.3591 92.584 17.7089C92.584 18.4302 92.584 19.1953 92.584 20.0041C92.584 20.791 92.4867 21.4358 92.2923 21.9386C92.1194 22.4632 91.8277 22.8238 91.4171 23.0206C91.0065 23.2173 90.5203 23.1626 89.9585 22.8566C89.7208 22.7255 89.5263 22.5506 89.3751 22.332C89.2454 22.0916 89.1374 21.8402 89.051 21.5779C88.9861 21.3156 88.9429 21.0533 88.9213 20.791C88.8997 20.5068 88.8781 20.2445 88.8565 20.0041C88.7917 19.2827 88.7484 18.616 88.7268 18.004C88.7268 17.3701 88.7268 16.6925 88.7268 15.9711V11.2496Z" fill="#FDE60C"/>
<path d="M48.7979 23.4222C47.933 23.4222 47.0963 23.3279 46.2878 23.1393C45.4981 22.9318 44.7742 22.5357 44.1161 21.9509C43.8717 21.7246 43.6367 21.4699 43.4111 21.187C43.2042 20.8852 43.0538 20.5928 42.9598 20.3099C42.8846 20.0081 42.894 19.7157 42.988 19.4328C43.082 19.131 43.317 18.8669 43.6931 18.6405C43.9375 18.4896 44.1538 18.4142 44.3418 18.4142C44.5486 18.4142 44.7366 18.4613 44.9058 18.5556C45.0939 18.65 45.2631 18.782 45.4135 18.9518C45.5827 19.1027 45.7519 19.2536 45.9212 19.4045C46.3536 19.7629 46.8143 19.9986 47.3031 20.1118C47.8108 20.225 48.3373 20.2816 48.8825 20.2816C49.503 20.2816 50.0765 20.1307 50.6029 19.8289C51.1294 19.5271 51.5713 19.131 51.9285 18.6405C52.3046 18.1501 52.5772 17.5936 52.7464 16.9712C52.9156 16.3487 52.9532 15.7262 52.8592 15.1038C52.314 15.4244 51.6935 15.6791 50.9978 15.8677C50.3021 16.0375 49.6346 16.1224 48.9953 16.1224C47.98 16.1224 47.0587 15.9809 46.2314 15.6979C45.4229 15.3961 44.7272 14.9812 44.1444 14.453C43.5615 13.906 43.1102 13.2458 42.7906 12.4724C42.4709 11.6991 42.3111 10.8408 42.3111 9.89767C42.3111 8.91681 42.4803 8.0114 42.8188 7.18144C43.1572 6.33262 43.6367 5.60641 44.2572 5.0028C44.8776 4.38033 45.6203 3.89933 46.4852 3.5598C47.3501 3.20141 48.3091 3.02222 49.362 3.02222C50.5653 3.02222 51.5713 3.20141 52.3798 3.5598C53.2071 3.89933 53.9592 4.41806 54.636 5.11598C55.3317 5.85162 55.8394 6.81362 56.159 8.00197C56.4975 9.19032 56.6667 10.7559 56.6667 12.6988C56.6667 14.2832 56.4881 15.7357 56.1308 17.0561C55.7924 18.3764 55.2941 19.5082 54.636 20.4513C53.978 21.3945 53.1507 22.1301 52.1541 22.6583C51.1764 23.1676 50.0577 23.4222 48.7979 23.4222ZM49.4466 6.4458C49.1082 6.42693 48.7697 6.4458 48.4313 6.50238C48.1116 6.54011 47.8202 6.60613 47.557 6.70044C47.0493 6.90793 46.6451 7.24746 46.3442 7.71903C46.0434 8.17173 45.8554 8.67159 45.7802 9.21861C45.7049 9.76563 45.7425 10.3126 45.893 10.8597C46.0622 11.4067 46.3536 11.8594 46.7673 12.2178C47.1245 12.5573 47.5476 12.7837 48.0364 12.8968C48.5253 13.01 49.0141 13.0383 49.503 12.9817C50.0107 12.9251 50.4901 12.7837 50.9414 12.5573C51.3926 12.331 51.7687 12.0386 52.0695 11.6802C52.3704 11.3218 52.5678 10.9445 52.6618 10.5484C52.7746 10.1335 52.7934 9.7279 52.7182 9.33179C52.6618 8.91681 52.5302 8.53012 52.3234 8.17173C52.1165 7.79448 51.8627 7.46438 51.5619 7.18144C51.2986 6.97395 50.979 6.81362 50.6029 6.70044C50.2457 6.5684 49.8603 6.48352 49.4466 6.4458Z" fill="white"/>
<path d="M4.35481 20.5922C4.33298 20.702 4.31115 20.8119 4.28933 20.9217C4.28933 21.0095 4.28933 21.1084 4.28933 21.2182L4.09287 21.9101C4.04921 21.998 4.01647 22.0529 3.99464 22.0748L3.89641 22.2725C3.78727 22.5141 3.59081 22.7118 3.30704 22.8656C2.78315 23.1292 2.22652 23.1951 1.63715 23.0633C1.26606 23.0193 0.971374 22.9095 0.753088 22.7338C0.534801 22.58 0.382001 22.3933 0.294686 22.1737C0.207372 21.954 0.141886 21.7344 0.0982288 21.5147C0.0327429 21.2951 0 21.0974 0 20.9217V2.47106C0 2.31731 0 2.18552 0 2.07569C0.0218286 1.9439 0.0436572 1.8231 0.0654859 1.71327C0.0873145 1.55952 0.109143 1.42773 0.130972 1.3179C0.174629 1.20808 0.218286 1.08727 0.261943 0.955478C0.327429 0.735828 0.447487 0.560108 0.622116 0.428318C0.884059 0.230633 1.13509 0.120808 1.3752 0.0988433C1.528 0.0549125 1.66989 0.0329471 1.80086 0.0329471C1.93183 0.0109824 2.08463 0 2.25926 0C2.56486 0 2.91412 0.0878602 3.30704 0.263581C3.61264 0.439301 3.83092 0.680916 3.9619 0.988427C4.18018 1.42773 4.28933 1.83408 4.28933 2.20748C4.31115 2.42713 4.32207 2.75661 4.32207 3.19591C4.3439 3.63521 4.35481 3.96469 4.35481 4.18434V4.31613C4.39847 5.01901 4.4203 5.69992 4.4203 6.35887C4.4203 6.99586 4.40938 7.69874 4.38755 8.46751C4.38755 9.21432 4.37664 9.93917 4.35481 10.6421C4.35481 11.323 4.35481 12.0039 4.35481 12.6848V19.6038C4.35481 19.6916 4.35481 19.7795 4.35481 19.8674C4.37664 19.9333 4.38755 20.0101 4.38755 20.098C4.38755 20.3176 4.37664 20.4824 4.35481 20.5922Z" fill="#FDE60C"/>
<path d="M21.0159 8.69815C21.1905 9.11548 21.2014 9.57675 21.0486 10.0819C20.9176 10.5871 20.6666 10.9166 20.2955 11.0704C20.0991 11.1582 19.8371 11.2351 19.5097 11.301C19.1822 11.3449 18.8221 11.3889 18.4292 11.4328C18.0581 11.4767 17.687 11.5097 17.3159 11.5316C16.9448 11.5536 16.6283 11.5646 16.3664 11.5646C16.3882 12.2235 16.41 12.9044 16.4318 13.6073C16.4537 14.2882 16.4755 14.9582 16.4973 15.6171C16.5192 16.2761 16.5301 16.9131 16.5301 17.5281C16.5301 18.1211 16.5192 18.6593 16.4973 19.1425C16.4973 19.472 16.4973 19.8564 16.4973 20.2957C16.4973 20.713 16.4646 21.1194 16.3991 21.5147C16.3554 21.9101 16.279 22.2615 16.1699 22.5691C16.0608 22.8546 15.897 23.0413 15.6788 23.1292C15.0021 23.4147 14.3799 23.4916 13.8124 23.3598C13.2667 23.25 12.8738 23.0193 12.6337 22.6679C12.459 22.3824 12.3281 22.0529 12.2407 21.6795C12.1534 21.2841 12.0879 20.8887 12.0443 20.4934C12.0225 20.076 12.0115 19.6807 12.0115 19.3072C12.0334 18.9119 12.0443 18.5714 12.0443 18.2859C12.0661 17.3633 12.077 16.32 12.077 15.1559C12.0989 13.9698 12.1098 12.7836 12.1098 11.5975H11.6186C11.3567 11.5975 11.0183 11.5975 10.6036 11.5975C10.2107 11.5756 9.80685 11.5426 9.39211 11.4987C8.99919 11.4328 8.62811 11.3559 8.27885 11.2681C7.92959 11.1582 7.67856 11.0045 7.52576 10.8068C7.28565 10.5212 7.13284 10.2137 7.06736 9.88426C7.0237 9.55478 7.04553 9.24727 7.13284 8.96173C7.24199 8.65422 7.4057 8.39064 7.62399 8.17099C7.84228 7.92937 8.0933 7.77562 8.37708 7.70972C8.76999 7.5999 9.32662 7.54498 10.047 7.54498C10.7673 7.52302 11.444 7.52302 12.077 7.54498C12.0552 7.32533 12.0443 7.11666 12.0443 6.91898C12.0443 6.69933 12.0334 6.49066 12.0115 6.29298C11.9897 6.0294 11.9788 5.69992 11.9788 5.30455C11.9788 4.88722 12.0006 4.48086 12.0443 4.08549C12.1098 3.66816 12.208 3.28377 12.339 2.93233C12.4699 2.55892 12.6555 2.27338 12.8956 2.07569C13.223 1.81211 13.5505 1.66934 13.8779 1.64738C14.2271 1.60345 14.5437 1.64738 14.8274 1.77917C15.133 1.91096 15.3841 2.10864 15.5805 2.37222C15.7988 2.61384 15.9516 2.8884 16.0389 3.19591C16.1044 3.45949 16.159 3.77798 16.2026 4.15139C16.2463 4.50283 16.2681 4.87623 16.2681 5.2716C16.29 5.66698 16.3009 6.06235 16.3009 6.45772C16.3009 6.85309 16.3009 7.21551 16.3009 7.54498H16.6283C16.9557 7.54498 17.3377 7.534 17.7743 7.51204C18.2109 7.49007 18.6365 7.50105 19.0513 7.54498C19.4878 7.58891 19.8808 7.69874 20.23 7.87446C20.5793 8.02821 20.8412 8.30278 21.0159 8.69815Z" fill="#FDE60C"/>
<path d="M32.9312 23.4222C32.0663 23.4222 31.2296 23.3279 30.4211 23.1393C29.6314 22.9318 28.9075 22.5357 28.2494 21.9509C28.005 21.7246 27.77 21.4699 27.5443 21.187C27.3375 20.8852 27.1871 20.5928 27.0931 20.3099C27.0179 20.0081 27.0273 19.7157 27.1213 19.4328C27.2153 19.131 27.4503 18.8669 27.8264 18.6405C28.0708 18.4896 28.287 18.4142 28.4751 18.4142C28.6819 18.4142 28.8699 18.4613 29.0391 18.5556C29.2272 18.65 29.3964 18.782 29.5468 18.9518C29.716 19.1027 29.8852 19.2536 30.0545 19.4045C30.4869 19.7629 30.9476 19.9986 31.4364 20.1118C31.9441 20.225 32.4706 20.2816 33.0158 20.2816C33.6363 20.2816 34.2098 20.1307 34.7362 19.8289C35.2627 19.5271 35.7045 19.131 36.0618 18.6405C36.4378 18.1501 36.7105 17.5936 36.8797 16.9712C37.0489 16.3487 37.0865 15.7262 36.9925 15.1038C36.4472 15.4244 35.8268 15.6791 35.1311 15.8677C34.4354 16.0375 33.7679 16.1224 33.1286 16.1224C32.1133 16.1224 31.192 15.9809 30.3647 15.6979C29.5562 15.3961 28.8605 14.9812 28.2776 14.453C27.6948 13.906 27.2435 13.2458 26.9239 12.4724C26.6042 11.6991 26.4444 10.8408 26.4444 9.89767C26.4444 8.91681 26.6136 8.0114 26.9521 7.18144C27.2905 6.33262 27.77 5.60641 28.3905 5.0028C29.0109 4.38033 29.7536 3.89933 30.6185 3.5598C31.4834 3.20141 32.4423 3.02222 33.4953 3.02222C34.6986 3.02222 35.7045 3.20141 36.513 3.5598C37.3403 3.89933 38.0924 4.41806 38.7693 5.11598C39.465 5.85162 39.9727 6.81362 40.2923 8.00197C40.6307 9.19032 40.8 10.7559 40.8 12.6988C40.8 14.2832 40.6213 15.7357 40.2641 17.0561C39.9257 18.3764 39.4274 19.5082 38.7693 20.4513C38.1112 21.3945 37.2839 22.1301 36.2874 22.6583C35.3097 23.1676 34.191 23.4222 32.9312 23.4222ZM33.5799 6.4458C33.2414 6.42693 32.903 6.4458 32.5646 6.50238C32.2449 6.54011 31.9535 6.60613 31.6903 6.70044C31.1826 6.90793 30.7783 7.24746 30.4775 7.71903C30.1767 8.17173 29.9886 8.67159 29.9134 9.21861C29.8382 9.76563 29.8758 10.3126 30.0263 10.8597C30.1955 11.4067 30.4869 11.8594 30.9006 12.2178C31.2578 12.5573 31.6809 12.7837 32.1697 12.8968C32.6586 13.01 33.1474 13.0383 33.6363 12.9817C34.144 12.9251 34.6234 12.7837 35.0747 12.5573C35.5259 12.331 35.902 12.0386 36.2028 11.6802C36.5036 11.3218 36.7011 10.9445 36.7951 10.5484C36.9079 10.1335 36.9267 9.7279 36.8515 9.33179C36.7951 8.91681 36.6635 8.53012 36.4566 8.17173C36.2498 7.79448 35.996 7.46438 35.6951 7.18144C35.4319 6.97395 35.1123 6.81362 34.7362 6.70044C34.379 6.5684 33.9935 6.48352 33.5799 6.4458Z" fill="white"/>
</svg>
